<?xml version="1.0" encoding="utf-8"?>
<!-- Svg Vector Icons : http://www.onlinewebfonts.com/icon -->
<!DOCTYPE svg PUBLIC "-//W3C//DTD SVG 1.1//EN" "http://www.w3.org/Graphics/SVG/1.1/DTD/svg11.dtd">
<svg version="1.1" xmlns="http://www.w3.org/2000/svg" xmlns:xlink="http://www.w3.org/1999/xlink" x="0px" y="0px" viewBox="-150 -120 1300 1300" enable-background="new 0 0 1000 1000" xml:space="preserve">
<metadata> Svg Vector Icons : http://www.onlinewebfonts.com/icon </metadata>
<g><g transform="translate(0.000000,511.000000) scale(0.100000,-0.100000)"><path d="M597.7,986.6c0-566.6-3.8-625.9-36.4-698.6c-51.7-112.9-124.4-147.4-300.5-135.9L123,161.7l-9.6-78.5c-5.7-42.1-7.7-80.4-5.7-84.2c3.8-1.9,55.5-13.4,114.8-23c201-32.5,402,32.5,484.3,155c93.8,141.6,101.4,206.7,101.4,863.2V1603H702.9H597.7V986.6z"/><path d="M7425.1,1568.5c-42.1-47.9-40.2-143.6,1.9-181.8c47.9-42.1,143.6-40.2,181.8,1.9c40.2,44,42.1,145.5,1.9,183.8C7570.6,1614.5,7463.4,1610.6,7425.1,1568.5z"/><path d="M9475.1,1455.6l-91.9-26.8v-132.1v-132.1l-80.4-5.7c-82.3-5.7-82.3-5.7-88-86.1l-5.7-82.3h84.2h86.1l7.7-396.2c7.6-446,23-507.2,139.7-580c53.6-32.5,90-38.3,204.8-34.5l139.7,5.7L9877,66l5.7,80.4l-111,5.7c-105.3,5.7-112.9,9.6-143.6,72.7c-28.7,55.5-34.5,122.5-34.5,417.3v348.4h153.1H9900v86.1v86.1h-153.1h-153.1v162.7c0,90-5.7,162.7-13.4,160.8C9570.8,1484.3,9524.9,1470.9,9475.1,1455.6z"/><path d="M1328.8,1151.3c-114.8-30.6-176.1-59.3-176.1-82.3c0-7.7,9.6-42.1,21.1-72.7c19.1-57.4,21.1-57.4,74.6-32.5c30.6,15.3,101.4,38.3,157,49.8c193.3,40.2,335-44,346.4-204.8l3.8-76.6l-153.1-13.4c-290.9-23-476.6-137.8-526.4-323.5c-93.8-342.6,317.7-564.6,620.2-333l86.1,65.1l5.7-61.3c5.7-59.3,9.6-61.3,101.4-67l95.7-5.7l-9.6,436.4c-9.6,388.5-15.3,446-51.7,524.4C1836.1,1149.3,1606.4,1225.9,1328.8,1151.3z M1765.2,460.3c0-210.5-105.3-331.1-287.1-331.1c-109.1,0-164.6,38.3-193.3,132.1c-19.1,63.2-17.2,86.1,13.4,147.4c55.5,111,189.5,172.3,396.2,178l70.8,1.9V460.3z"/><path d="M3635.3,1160.8c-57.4-13.4-174.2-63.2-201-84.2c-1.9-1.9,5.7-30.6,17.2-65.1c19.1-51.7,28.7-59.3,63.2-49.8c126.3,40.2,235.4,67,275.6,67c130.2,0,252.7-118.7,252.7-243.1v-63.2h-111c-327.3,0-555.1-149.3-574.2-373.2c-11.5-130.2,1.9-183.8,65.1-258.4C3493.6,6.6,3574-27.8,3696.5-27.8c120.6-1.9,235.4,40.2,312,112.9l51.7,47.9l11.5-68.9c13.4-67,15.3-68.9,103.4-68.9h88l-3.8,216.3c-15.3,666.1-15.3,671.8-51.7,740.7c-19.1,36.4-57.4,90-84.2,120.6C4035.3,1164.6,3820.9,1204.8,3635.3,1160.8z M4043,452.6c0-218.2-95.7-323.5-292.8-323.5c-120.6,0-185.7,67-185.7,189.5c0,49.8,13.4,107.2,30.6,132.1c53.6,76.6,202.9,130.2,377.1,135.9l70.8,1.9V452.6z"/><path d="M4781.8,1155.1c-166.5-63.2-266-233.5-223.9-386.6c30.6-114.8,101.5-172.3,354.1-287.1c86.1-40.2,116.8-65.1,137.8-114.8c78.5-189.5-137.8-298.6-394.3-201l-95.7,36.4l-23-76.6c-19.1-63.2-17.2-78.5,5.7-93.8C4644-33.6,4944.5-45,5067,12.4c86.1,38.3,176.1,134,193.3,204.8c21.1,82.3-3.8,229.7-47.9,292.9c-28.7,40.2-99.5,86.1-208.6,137.8c-204.8,97.6-252.7,137.8-252.7,218.2c0,68.9,40.2,112.9,128.2,145.5c47.9,15.3,88,13.4,178-9.6c65.1-17.2,120.6-30.6,124.4-30.6c9.6,0,53.6,135.9,44,141.6C5135.9,1172.3,4892.8,1195.3,4781.8,1155.1z"/><path d="M5901.5,1153.2c-128.2-36.4-210.5-86.1-290.9-176.1c-105.3-122.5-139.7-223.9-141.7-417.3c0-151.2,7.7-185.7,53.6-281.4c65.1-132.1,176.1-231.6,304.3-275.6c111-36.4,411.5-30.6,495.7,9.6c45.9,22.9,49.8,32.5,36.4,91.9c-9.6,36.4-19.1,68.9-23,72.7c-3.8,3.8-53.6-5.7-111-21.1c-179.9-47.9-373.2,5.7-459.4,126.3c-47.9,67-95.7,210.5-95.7,287.1c0,26.8,13.4,97.6,30.6,153.1c68.9,233.5,290.9,338.8,547.4,260.3l88-24.9l9.6,49.8c5.7,26.8,15.3,63.2,23,80.4C6395.4,1158.9,6077.6,1202.9,5901.5,1153.2z"/><path d="M6992.5,1141.7c-53.6-26.8-103.3-72.7-137.8-128.2l-53.6-84.2l-5.7,111l-5.7,112.9h-86.1h-86.1l1.9-70.8c0-40.2,1.9-300.5,3.8-580L6627-4.8h105.3h105.3v369.4c0,321.6,5.7,377.1,38.3,447.9c45.9,101.4,134,158.9,245,158.9h82.3l-5.7,101.4c-5.7,95.7-7.6,99.5-63.2,105.3C7103.6,1180,7038.5,1164.6,6992.5,1141.7z"/><path d="M8445.3,1164.6c-88-26.8-166.5-76.6-216.3-135.9c-26.8-30.6-53.6-57.4-59.3-57.4c-5.7,0-11.5,40.2-15.3,91.9l-5.7,90h-86.1h-86.1v-137.8c0-76.6,3.8-446,5.7-819.2l3.8-679.5h95.7h95.7v306.3c0,168.4,3.8,306.3,7.7,306.3c5.7,0,34.4-23,63.2-49.8c78.5-74.7,172.3-107.2,302.4-107.2c143.6,0,245,40.2,348.4,141.6c126.3,124.4,166.5,237.3,168.4,465.1c0,166.5-5.7,204.8-49.8,298.6C8906.6,1113,8669.3,1231.6,8445.3,1164.6z M8654,982.8c147.4-76.6,227.8-262.2,204.8-472.8c-21-216.3-135.9-354.1-310.1-373.2c-114.8-13.4-245,45.9-308.2,141.6c-72.7,109.1-80.4,413.4-15.3,539.8c28.7,53.6,112.9,135.9,172.3,168.4C8451.1,1017.3,8590.8,1015.3,8654,982.8z"/><path d="M2161.4,1149.3c-3.8-9.6,90-269.9,206.7-580L2584.4,4.7L2687.8-1l103.4-5.7l223.9,570.4c122.5,313.9,224,576.1,224,585.7c0,7.7-45.9,13.4-103.4,13.4h-105.3l-36.4-99.5c-19.1-55.5-93.8-271.8-164.6-478.5l-130.2-377.1L2550,644c-80.4,239.3-158.9,453.6-170.4,476.6c-19.1,34.5-40.2,42.1-116.8,42.1C2211.2,1162.7,2165.3,1157,2161.4,1149.3z"/><path d="M7425.1,1149.3c-7.7-5.7-13.4-269.9-13.4-583.8V-4.8H7517h105.3v583.8v583.8h-91.9C7478.7,1162.7,7430.9,1157,7425.1,1149.3z"/><path d="M100-1229.8V-1383h4900h4900v153.1v153.1H5000H100V-1229.8z"/></g></g>
</svg>